<svg width="18" height="19" viewBox="0 0 18 19" fill="none" xmlns="http://www.w3.org/2000/svg">
<path d="M13.1464 5.00609C13.146 5.18545 13.0757 5.35406 12.9486 5.48081C12.6855 5.74198 12.2592 5.74083 11.9976 5.47774L9.66868 3.1483V13.8161C9.66868 14.1867 9.36719 14.4882 8.99657 14.4882C8.62595 14.4882 8.32446 14.1867 8.32446 13.8161V3.1483L5.99244 5.48043C5.72974 5.7416 5.30343 5.74045 5.04227 5.47774C4.78072 5.21503 4.78188 4.7887 5.04534 4.52676L8.52149 1.05046C8.78342 0.788518 9.20973 0.788518 9.47204 1.05046L12.9466 4.52522L12.9509 4.52983C13.0776 4.65696 13.1471 4.82634 13.1464 5.00609Z" fill="#4D4D4D"/>
<path d="M17.657 9.51442V16.8887C17.657 17.5985 17.0798 18.1754 16.3704 18.1754H1.62242C0.91306 18.1754 0.335815 17.5985 0.335815 16.8887V9.51442C0.335815 9.14379 0.637304 8.84229 1.00792 8.84229C1.37854 8.84229 1.68003 9.14379 1.68003 9.51442V16.8311H16.3128V9.51442C16.3128 9.14379 16.6143 8.84229 16.9849 8.84229C17.3555 8.84229 17.657 9.14379 17.657 9.51442Z" fill="#4D4D4D"/>
</svg>
