<svg width="23" height="19" viewBox="0 0 23 19" fill="none" xmlns="http://www.w3.org/2000/svg">
<path d="M13.9128 17.4809C13.9128 17.864 13.6009 18.1752 13.2178 18.1752H6.40585C4.83187 18.1752 3.48725 16.9996 3.27806 15.441L3.27554 15.4271C3.26105 15.3698 3.25349 15.3131 3.25349 15.2583V15.1858C3.25034 15.1298 3.24908 15.0737 3.24908 15.0189V5.29108C3.24908 5.26714 3.25034 5.24257 3.25286 5.21737L3.25349 3.20957L1.35123 5.11216C1.08155 5.37991 0.643633 5.37928 0.375213 5.10901C0.106792 4.83937 0.108053 4.40152 0.377733 4.13314L3.45575 1.05623C3.58618 0.925824 3.75945 0.854004 3.94344 0.854004C4.12806 0.854004 4.30133 0.925824 4.43176 1.05623L7.5123 4.13629C7.78009 4.40593 7.77946 4.84378 7.50915 5.11216C7.23947 5.37991 6.80155 5.37928 6.53313 5.10901L4.63339 3.20957V5.20414L4.63465 5.21737C4.63717 5.24257 4.63843 5.26714 4.63843 5.29108V15.0189C4.63843 15.9935 5.43109 16.786 6.40585 16.786H13.2178C13.6009 16.786 13.9128 17.0979 13.9128 17.4809Z" fill="#4D4D4D"/>
<path d="M22.4452 14.4084C22.4446 14.593 22.3728 14.7656 22.2417 14.896L19.1637 17.9736C18.8946 18.2426 18.4574 18.2426 18.1877 17.9729L15.1078 14.8935C14.9773 14.7625 14.9061 14.5892 14.9068 14.4046C14.9074 14.2207 14.9792 14.0474 15.1103 13.9176C15.2401 13.7879 15.4134 13.7167 15.5967 13.7167H15.5986C15.7832 13.7173 15.9559 13.7891 16.0863 13.9202L17.9861 15.8196V13.825L17.9854 13.8118C17.9829 13.7866 17.981 13.762 17.981 13.7387V4.01029C17.981 3.03569 17.1883 2.24315 16.2136 2.24315H9.40164C9.01854 2.24315 8.70728 1.93193 8.70728 1.54889C8.70728 1.16585 9.01854 0.854004 9.40164 0.854004H16.2136C17.7876 0.854004 19.1322 2.02958 19.3414 3.58883L19.3445 3.60269C19.3584 3.65939 19.366 3.71609 19.366 3.7709V3.84334C19.3691 3.90004 19.371 3.95674 19.371 4.01029V13.7387C19.371 13.762 19.3691 13.7872 19.3666 13.8118L19.366 15.8196L21.2688 13.9176C21.4031 13.7841 21.5795 13.7173 21.7553 13.7173C21.9323 13.7173 22.1094 13.7847 22.2442 13.9202C22.3747 14.0506 22.4459 14.2245 22.4452 14.4084Z" fill="#4D4D4D"/>
</svg>
